# xmcd
#
# Track frame offsets:
#  150
#  19089
#  33279
#  50112
#  65383
#  83872
#  96908
#  111555
#  129054
#  144463
#
# Disc length: 2162 seconds
#
# Revision: 1
# Processed by: cddbd v1.5.1PL2 Copyright (c) Steve Scherf et al.
# Submitted via: Collectorz.com_Music_Collector 6.11
#
DISCID=8508700a
DTITLE=Aaron Pritchett - Something Goin' On Here
DYEAR=2003
DGENRE=Country
TTITLE0=Eighteen
TTITLE1=Lucky For Me
TTITLE2=My Way
TTITLE3=John Roland Wood
TTITLE4=Little Things
TTITLE5=Don't Even Think About It
TTITLE6=Right Down The Line
TTITLE7=New Frontier
TTITLE8=Best Days
TTITLE9=Something Goin' On Here
EXTD=
EXTT0=
EXTT1=
EXTT2=
EXTT3=
EXTT4=
EXTT5=
EXTT6=
EXTT7=
EXTT8=
EXTT9=
PLAYORDER=
